<mxfile host="app.diagrams.net" modified="2021-09-08T12:43:09.741Z" agent="5.0 (X11; Linux x86_64) AppleWebKit/537.36 (KHTML, like Gecko) Chrome/93.0.4577.63 Safari/537.36" etag="7B37-9s3qKWzuDbUv1bL" version="14.9.8" type="github">
  <diagram id="6XGJqjT74cjKN67CY4M7" name="DevSecOps">
    <mxGraphModel dx="1171" dy="818" grid="1" gridSize="10" guides="1" tooltips="1" connect="1" arrows="1" fold="1" page="1" pageScale="1" pageWidth="850" pageHeight="1100" math="0" shadow="0">
      <root>
        <mxCell id="0" />
        <mxCell id="1" parent="0" />
      </root>
    </mxGraphModel>
  </diagram>
</mxfile>
